<?xml version="1.0" standalone="no"?>
<!DOCTYPE svg PUBLIC "-//W3C//DTD SVG 20010904//EN"
 "http://www.w3.org/TR/2001/REC-SVG-20010904/DTD/svg10.dtd">
<svg version="1.0" xmlns="http://www.w3.org/2000/svg"
 width="500.000000pt" height="500.000000pt" viewBox="0 0 500.000000 500.000000"
 preserveAspectRatio="xMidYMid meet">

<g transform="translate(0.000000,500.000000) scale(0.100000,-0.100000)"
fill="#000000" stroke="none">
<path d="M2270 4676 c-365 -47 -683 -164 -975 -359 -365 -244 -651 -593 -818
-997 -200 -486 -221 -1033 -58 -1530 72 -218 205 -467 355 -665 88 -117 295
-320 418 -411 288 -214 668 -366 1042 -419 145 -20 441 -20 588 1 342 47 682
178 970 372 405 273 728 730 867 1225 52 187 72 346 72 577 0 378 -69 679
-225 990 -177 352 -415 627 -733 844 -61 42 -114 76 -116 76 -3 0 -40 20 -84
44 -184 104 -482 205 -713 241 -142 22 -455 28 -590 11z m472 -96 c944 -92
1705 -805 1874 -1755 26 -145 26 -537 0 -690 -81 -484 -298 -884 -666 -1230
-395 -372 -1001 -585 -1552 -546 -517 37 -968 233 -1328 578 -199 191 -350
398 -460 630 -140 296 -201 578 -200 925 1 554 202 1047 591 1452 349 363 803
585 1309 639 73 8 339 6 432 -3z"/>
<path d="M2295 4445 c-766 -93 -1416 -624 -1654 -1351 -76 -232 -107 -456 -97
-694 7 -181 16 -240 57 -409 120 -491 443 -933 882 -1204 177 -111 452 -219
659 -261 296 -60 669 -40 973 54 342 105 674 325 914 604 712 829 619 2077
-208 2791 -421 362 -983 535 -1526 470z m689 -316 c-3 -5 -10 -7 -15 -3 -5 3
-7 10 -3 15 3 5 10 7 15 3 5 -3 7 -10 3 -15z m156 -54 c-12 -74 -13 -388 -1
-381 11 7 21 99 22 213 1 66 4 90 13 87 9 -3 10 -23 5 -72 -11 -94 -10 -204 1
-222 18 -29 25 23 25 182 0 86 3 154 6 150 8 -8 18 -380 11 -387 -3 -3 -11 0
-19 7 -10 8 -17 8 -25 0 -9 -9 -15 -8 -26 1 -12 9 -16 9 -19 0 -2 -7 -11 -9
-19 -6 -16 6 -19 54 -5 69 5 5 11 101 12 214 1 113 4 209 7 213 2 5 8 5 13 0
5 -5 4 -34 -1 -68z m-1214 38 c-4 -24 7 -315 16 -433 2 -26 -1 -35 -12 -35
-13 0 -15 26 -15 170 0 139 -3 172 -15 182 -12 10 -12 12 -1 13 10 0 12 15 9
65 -3 51 -1 65 10 65 9 0 12 -8 8 -27z m47 -25 c-7 -78 -11 -82 -12 -10 -1 34
3 62 8 62 4 0 6 -24 4 -52z m45 20 c0 -18 9 -51 21 -73 12 -24 20 -56 20 -80
l-2 -40 -6 46 c-4 25 -17 58 -29 73 -22 29 -32 106 -12 106 5 0 9 -15 8 -32z
m66 17 c-4 -8 -10 -15 -15 -15 -5 0 -9 7 -9 15 0 8 7 15 15 15 9 0 12 -6 9
-15z m966 11 c0 -2 -3 -11 -6 -20 -9 -23 -24 -20 -24 4 0 11 7 20 15 20 8 0
15 -2 15 -4z m43 -3 c2 -5 1 -21 -3 -38 l-6 -30 -5 38 c-4 33 3 50 14 30z
m-913 -13 c0 -5 -4 -10 -10 -10 -5 0 -10 5 -10 10 0 6 5 10 10 10 6 0 10 -4
10 -10z m718 -1 c-2 -6 -8 -10 -13 -10 -5 0 -11 4 -13 10 -2 6 4 11 13 11 9 0
15 -5 13 -11z m-662 -155 l0 -149 -6 135 c-3 74 -9 143 -14 154 -7 14 -6 18 5
14 11 -4 14 -35 15 -154z m45 60 c-2 -65 1 -104 10 -120 7 -13 9 -27 5 -31
-16 -16 -26 27 -26 119 0 53 -3 103 -6 112 -4 10 -1 16 7 16 11 0 13 -20 10
-96z m471 29 c-5 -89 -26 -161 -58 -197 -39 -44 -37 -26 3 31 33 47 36 58 41
142 2 50 8 91 11 91 4 0 5 -30 3 -67z m55 -96 c2 -89 5 -195 9 -234 5 -69 5
-73 -15 -73 -17 0 -21 6 -21 29 0 17 5 33 10 36 11 7 14 145 3 145 -4 0 -17
-10 -30 -22 -27 -26 -32 -98 -8 -118 8 -7 15 -25 15 -41 0 -22 -5 -29 -20 -29
-19 0 -20 7 -20 89 0 87 1 90 30 114 l30 26 0 120 c0 67 3 121 8 121 4 0 8
-73 9 -163z m53 156 c0 -5 -5 -15 -10 -23 -8 -12 -10 -11 -10 8 0 12 5 22 10
22 6 0 10 -3 10 -7z m-503 -235 c34 -36 15 -37 -21 -2 -25 26 -26 31 -25 133
l2 106 8 -104 c8 -94 12 -108 36 -133z m-767 191 c0 -5 -4 -9 -10 -9 -5 0 -10
7 -10 16 0 8 5 12 10 9 6 -3 10 -10 10 -16z m70 11 c0 -5 -4 -10 -10 -10 -5 0
-10 5 -10 10 0 6 5 10 10 10 6 0 10 -4 10 -10z m433 -63 c-8 -13 -21 19 -22
53 0 23 1 22 14 -9 8 -18 12 -38 8 -44z m357 22 c0 -5 -13 0 -30 9 -16 9 -30
23 -30 30 0 8 11 5 30 -10 17 -12 30 -25 30 -29z m613 27 c-3 -14 -16 -35 -29
-47 -20 -19 -24 -32 -24 -84 0 -33 4 -65 9 -70 5 -6 11 -57 12 -115 3 -88 2
-105 -11 -105 -13 0 -14 16 -11 103 2 60 -1 102 -6 102 -6 0 -8 34 -5 83 4 67
9 87 28 110 13 16 24 33 24 38 0 5 4 9 9 9 4 0 6 -11 4 -24z m347 -3 c0 -15
-10 -37 -22 -50 -13 -13 -16 -23 -9 -23 7 0 -2 -12 -20 -27 l-32 -27 5 -143
c5 -138 4 -143 -15 -143 -18 0 -19 4 -11 43 4 23 8 88 9 144 0 94 3 104 25
129 l25 28 -30 -18 c-59 -36 -65 -49 -65 -157 0 -54 4 -101 10 -104 6 -3 10
-19 10 -36 0 -22 -5 -29 -19 -29 -18 0 -19 7 -14 143 5 159 2 152 103 221 34
24 41 32 36 52 -4 14 -2 24 4 24 5 0 10 -12 10 -27z m-740 12 c0 -2 -13 -11
-30 -20 l-30 -15 -2 -198 c-3 -167 -5 -197 -18 -197 -21 0 -25 58 -6 75 13 10
16 40 16 167 0 148 1 156 23 174 20 17 47 25 47 14z m309 -25 c-10 -27 -8
-322 2 -375 3 -15 -2 -21 -20 -23 -22 -4 -23 -2 -16 35 4 21 7 109 6 196 -3
139 -1 161 15 178 23 26 25 24 13 -11z m485 6 c-3 -9 -10 -16 -15 -16 -6 0 -5
9 1 21 13 24 24 20 14 -5z m-1737 -77 c24 -10 44 -24 45 -31 0 -7 2 -62 3
-123 2 -60 4 -126 6 -145 3 -26 0 -35 -11 -35 -13 0 -14 22 -11 151 l3 150
-42 19 c-40 18 -90 66 -90 87 0 5 12 -5 27 -22 15 -18 46 -41 70 -51z m1143
51 c-10 -19 -9 -273 1 -350 3 -20 0 -25 -16 -25 -16 0 -19 5 -16 30 2 17 4
103 5 193 2 128 6 166 16 172 20 12 24 5 10 -20z m-1330 0 c0 -11 7 -20 15
-20 21 0 85 -65 85 -86 0 -11 -8 -5 -23 17 -17 25 -67 64 -83 64 -1 0 -5 10
-8 23 -5 13 -3 22 3 22 6 0 11 -9 11 -20z m660 4 c0 -9 -8 -13 -22 -11 -31 5
-34 25 -3 25 14 0 25 -6 25 -14z m1330 -4 c0 -11 -12 -25 -28 -34 -55 -28 -64
-47 -64 -138 0 -46 3 -111 7 -145 6 -59 6 -63 -13 -63 -19 0 -20 5 -15 148 l5
147 36 38 c20 20 42 37 49 37 7 0 10 7 7 15 -4 8 -1 15 5 15 6 0 11 -9 11 -20z
m-1670 0 c0 -5 -8 -13 -17 -18 -14 -8 -17 -32 -21 -147 -3 -94 -1 -140 7 -148
6 -6 11 -23 11 -38 0 -30 -16 -47 -30 -33 -12 12 5 346 19 373 12 21 31 29 31
11z m819 -55 c-28 -61 -29 -71 -24 -163 2 -53 6 -110 7 -127 2 -24 -1 -30 -17
-30 -16 0 -19 6 -17 30 2 17 6 80 10 140 4 61 13 120 19 131 7 12 9 24 6 28
-5 5 34 56 43 56 2 0 -11 -29 -27 -65z m235 -100 c2 -82 7 -167 11 -187 7 -35
5 -38 -15 -38 -22 0 -22 3 -16 53 3 28 6 117 7 197 0 80 2 141 5 135 2 -5 6
-77 8 -160z m-770 -2 c2 -82 6 -166 8 -188 2 -30 -1 -40 -11 -40 -12 0 -15 32
-15 188 -1 103 2 187 6 187 4 0 9 -66 12 -147z m252 92 c24 -89 27 -105 17
-105 -6 0 -16 27 -22 61 -7 34 -21 69 -32 80 l-21 21 23 -4 c17 -2 25 -14 35
-53z m64 -94 c0 -89 4 -152 10 -156 6 -3 10 -19 10 -36 0 -22 -5 -29 -20 -29
-19 0 -20 7 -20 185 0 117 4 185 10 185 6 0 10 -56 10 -149z m625 -41 c0 -169
-1 -180 -19 -180 -16 0 -18 6 -13 48 4 26 9 97 12 157 6 101 12 155 18 155 1
0 2 -81 2 -180z m-1204 -116 c14 -28 8 -69 -11 -69 -10 0 -15 10 -14 33 0 17
2 98 4 180 l4 147 3 -135 c2 -74 8 -144 14 -156z m102 144 c2 -79 7 -156 12
-172 8 -27 -8 -51 -26 -40 -10 6 -7 354 2 354 5 0 10 -64 12 -142z m213 -210
c-19 -13 -28 4 -21 41 4 20 10 95 13 166 l6 130 6 -165 c5 -110 3 -167 -4
-172z m-102 155 c3 -84 1 -155 -3 -158 -5 -2 -15 2 -22 11 -10 12 -10 22 -1
48 7 18 12 83 12 146 0 62 2 111 4 109 3 -2 7 -73 10 -156z m-371 25 c3 -62 8
-128 12 -145 6 -30 5 -33 -15 -33 -21 0 -22 1 -18 145 2 80 6 145 10 145 4 0
9 -51 11 -112z m-86 20 c-2 -13 -4 -5 -4 17 -1 22 1 32 4 23 2 -10 2 -28 0
-40z m905 -173 c2 -14 -3 -21 -19 -23 -20 -3 -23 1 -23 27 0 16 5 33 10 36 6
3 11 48 12 98 l1 92 8 -105 c4 -58 9 -114 11 -125z m847 50 c13 -58 9 -75 -19
-75 -15 0 -20 7 -20 28 0 16 3 32 8 36 4 4 6 49 6 99 -2 91 -2 91 6 27 4 -36
13 -87 19 -115z m-1989 145 c0 -5 -4 -10 -10 -10 -5 0 -10 5 -10 10 0 6 5 10
10 10 6 0 10 -4 10 -10z m120 0 c0 -5 -4 -10 -10 -10 -5 0 -10 5 -10 10 0 6 5
10 10 10 6 0 10 -4 10 -10z m2034 2 c2 -4 -9 -14 -25 -21 -34 -15 -49 -59 -37
-111 14 -63 10 -90 -12 -90 -20 0 -20 4 -14 78 8 93 35 147 76 151 4 1 9 -3
12 -7z m116 -2 c0 -5 -4 -10 -10 -10 -5 0 -10 5 -10 10 0 6 5 10 10 10 6 0 10
-4 10 -10z m-1610 -10 c0 -5 -7 -10 -15 -10 -12 0 -15 -14 -15 -64 0 -36 5
-68 10 -71 11 -7 14 -58 4 -68 -3 -3 -12 -3 -20 0 -12 4 -13 24 -8 102 3 53 7
102 10 109 4 14 34 16 34 2z m-500 -31 c15 -28 5 -23 -15 7 -9 15 -12 23 -6
20 6 -4 16 -16 21 -27z m744 3 c3 -15 8 -62 11 -104 6 -74 6 -78 -14 -78 -24
0 -28 30 -10 77 14 37 3 113 -17 113 -21 0 -17 16 5 17 14 1 21 -6 25 -25z
m-982 3 c0 -5 -5 -11 -11 -13 -6 -2 -11 4 -11 13 0 9 5 15 11 13 6 -2 11 -8
11 -13z m2428 0 c0 -8 -7 -15 -15 -15 -8 0 -15 7 -15 15 0 8 7 15 15 15 8 0
15 -7 15 -15z m-2331 -5 c21 0 61 -51 60 -77 0 -27 0 -27 -12 7 -8 23 -25 42
-52 58 -22 13 -32 21 -22 18 10 -3 22 -6 26 -6z m990 -57 c18 -104 18 -117 -1
-121 -14 -3 -17 9 -20 92 -2 53 0 96 3 96 4 0 12 -30 18 -67z m1231 49 c-61
-42 -78 -85 -45 -112 9 -7 15 -23 13 -34 -3 -18 -10 -21 -46 -21 l-44 0 -3 60
c-4 56 -3 59 11 40 8 -11 18 -32 21 -47 9 -47 23 -31 23 26 0 50 3 57 33 80
17 14 39 26 47 25 10 0 6 -6 -10 -17z m-1960 -149 c0 -17 -6 -23 -21 -23 -20
0 -21 4 -15 53 3 28 6 66 7 82 1 21 5 12 15 -30 7 -33 13 -70 14 -82z m1031
41 c14 -47 11 -64 -11 -64 -18 0 -20 6 -19 83 1 71 2 77 11 47 5 -19 13 -49
19 -66z m990 56 c-41 -35 -45 -43 -43 -79 2 -35 0 -41 -18 -41 -15 0 -20 6
-20 25 0 34 26 72 74 106 55 41 59 35 7 -11z m-1338 -121 c-4 -4 -14 -4 -22 0
-11 7 -11 20 0 82 l14 74 9 -73 c4 -42 4 -78 -1 -83z m-941 64 c14 -34 16 -35
22 -15 10 29 24 28 32 -2 8 -34 0 -44 -38 -42 -31 1 -33 4 -36 44 -2 23 -6 42
-10 42 -4 0 -20 12 -37 25 l-30 26 41 -20 c30 -15 46 -30 56 -58z m199 3 c5
-6 9 -23 9 -38 0 -21 -5 -28 -20 -28 -17 0 -20 7 -20 48 0 26 4 58 8 72 6 23
7 22 10 -10 2 -19 8 -39 13 -44z m-57 27 c13 -78 12 -88 -9 -88 -13 0 -20 6
-19 18 0 9 1 37 2 62 2 55 17 59 26 8z m697 -27 c12 -13 11 -63 -1 -71 -6 -4
-18 -1 -26 6 -15 12 -13 61 4 114 5 17 7 15 10 -10 2 -16 8 -34 13 -39z m-742
-33 c1 -23 -4 -33 -14 -33 -16 0 -19 27 -8 81 7 33 7 33 14 9 4 -14 7 -40 8
-57z m-249 -24 c23 -33 40 -63 37 -65 -3 -3 -19 14 -35 38 -17 24 -37 50 -46
57 -13 11 -14 31 -2 31 2 0 22 -27 46 -61z m2529 -5 c-24 -31 -48 -58 -55 -61
-6 -2 -9 -15 -6 -29 4 -22 1 -24 -32 -24 -29 0 -36 4 -36 20 0 14 7 20 23 20
16 0 40 20 81 71 68 82 89 85 25 3z m-2659 40 c0 -8 -4 -12 -10 -9 -5 3 -10
10 -10 16 0 5 5 9 10 9 6 0 10 -7 10 -16z m50 6 c0 -5 -4 -10 -10 -10 -5 0
-10 5 -10 10 0 6 5 10 10 10 6 0 10 -4 10 -10z m2677 -22 c-3 -7 -5 -2 -5 12
0 14 2 19 5 13 2 -7 2 -19 0 -25z m61 21 c-2 -6 -8 -10 -13 -10 -5 0 -11 4
-13 10 -2 6 4 11 13 11 9 0 15 -5 13 -11z m-2728 -81 c34 -63 50 -78 84 -79
30 -2 30 -2 4 -6 -40 -6 -65 12 -93 67 -27 53 -34 57 -53 38 -9 -9 -12 -8 -12
5 0 11 8 17 23 17 17 0 30 -11 47 -42z m2722 27 c0 -5 -5 -11 -11 -13 -6 -2
-11 4 -11 13 0 9 5 15 11 13 6 -2 11 -8 11 -13z m-72 -60 c-25 -36 -37 -45
-58 -44 -24 2 -25 2 -4 6 13 3 35 22 50 43 15 22 31 39 35 40 4 0 -6 -20 -23
-45z m-2475 -21 c0 -13 -8 -20 -27 -22 -22 -3 -28 1 -28 17 0 18 22 31 45 26
6 -1 10 -10 10 -21z m-211 -36 c22 -51 39 -69 76 -78 l35 -8 -32 -1 c-24 -1
-40 7 -59 28 -31 36 -54 77 -46 85 9 10 11 7 26 -26z m2756 26 c0 -13 -25 -52
-53 -81 -25 -27 -38 -33 -73 -33 -24 0 -46 -4 -49 -10 -3 -5 -22 -10 -41 -10
-28 0 -34 4 -34 21 0 21 3 21 76 14 l75 -7 40 42 c21 22 39 47 39 55 0 8 5 15
10 15 6 0 10 -3 10 -6z m-2535 -49 c0 -24 -48 -33 -72 -14 -13 12 -13 14 4 26
27 20 68 13 68 -12z m2360 -5 c0 -10 -12 -16 -37 -18 -33 -3 -38 0 -38 18 0
18 5 21 38 18 25 -2 37 -8 37 -18z m-2726 -45 c3 -17 2 -17 -13 -3 -19 20 -21
31 -3 26 6 -3 14 -13 16 -23z m3046 16 c3 -6 -9 -30 -27 -55 l-32 -46 -115 0
c-64 0 -140 -3 -168 -6 -49 -6 -53 -5 -53 14 0 24 45 39 65 22 7 -6 65 -13
128 -16 113 -4 115 -4 147 22 24 21 30 32 26 50 -5 17 -2 24 8 24 8 0 17 -4
21 -9z m-2678 -14 c14 -14 -8 -37 -35 -37 -36 0 -63 27 -42 40 15 9 66 7 77
-3z m2733 -27 c0 -5 -4 -10 -10 -10 -5 0 -10 5 -10 10 0 6 5 10 10 10 6 0 10
-4 10 -10z m-3160 -10 c0 -5 -4 -10 -9 -10 -6 0 -13 5 -16 10 -3 6 1 10 9 10
9 0 16 -4 16 -10z m48 -31 c13 -16 19 -29 14 -29 -9 0 -33 25 -46 48 -14 23 9
11 32 -19z m3052 -4 c-13 -14 -26 -23 -28 -20 -3 3 5 16 18 30 13 14 26 23 28
20 3 -3 -5 -16 -18 -30z m-2875 -1 c64 3 124 11 134 18 25 16 73 2 69 -20 -2
-12 -13 -17 -36 -16 -17 0 -94 1 -171 2 -131 2 -139 3 -144 23 -5 20 -5 20 14
3 17 -15 33 -16 134 -10z m200 -59 c0 -15 -8 -21 -33 -23 -18 -2 -39 1 -45 6
-7 6 -93 9 -204 9 -106 -1 -192 2 -190 7 1 4 91 8 199 7 135 -2 198 1 203 9 4
6 21 10 38 8 24 -2 32 -8 32 -23z m2074 11 c15 -8 33 -26 39 -41 9 -20 12
-183 12 -643 l1 -617 -36 -32 -35 -33 -340 0 c-187 0 -340 -3 -340 -7 0 -4 16
-56 37 -115 l36 -108 73 0 c85 0 122 -14 131 -48 14 -59 31 -57 -507 -60 -355
-1 -497 1 -506 9 -22 18 -16 56 12 78 22 17 41 21 104 21 l77 0 37 108 c20 59
36 110 36 114 0 4 -156 9 -346 10 l-346 3 -29 33 -29 32 0 624 0 624 35 31 36
31 910 0 c768 0 914 -2 938 -14z m469 -4 c111 -2 202 -6 202 -10 0 -4 -84 -6
-187 -4 -120 2 -190 -1 -197 -8 -5 -5 -25 -10 -43 -10 -26 0 -33 4 -33 19 0
22 18 32 40 23 8 -4 106 -8 218 -10z m-3048 -22 c0 -5 -7 -10 -15 -10 -8 0
-15 5 -15 10 0 6 7 10 15 10 8 0 15 -4 15 -10z m3320 -5 c0 -8 -4 -15 -9 -15
-13 0 -22 16 -14 24 11 11 23 6 23 -9z m-50 -14 c0 -16 -30 -21 -130 -21 l-98
0 -25 -33 c-25 -33 -27 -34 -123 -40 -103 -7 -116 -5 -107 18 6 17 68 21 78 5
3 -5 28 -10 55 -10 44 0 53 4 81 35 l32 35 96 0 c53 0 103 5 111 10 19 12 30
13 30 1z m-2983 -43 c33 -33 45 -38 84 -38 25 0 50 5 56 11 17 17 77 7 81 -14
3 -17 -3 -18 -99 -11 -100 7 -104 8 -135 41 l-31 33 -106 0 c-58 0 -108 3
-110 8 -3 4 46 7 108 7 l114 0 38 -37z m92 22 c26 0 52 5 58 11 6 6 23 9 39 7
21 -2 29 -8 29 -23 0 -19 -5 -20 -95 -16 -52 2 -97 5 -99 7 -2 2 0 11 4 21 5
12 9 14 12 6 3 -8 23 -13 52 -13z m2481 9 c0 -8 17 -10 55 -6 30 3 55 2 55 -3
0 -4 -24 -10 -52 -13 -29 -3 -68 -9 -87 -13 -37 -7 -58 10 -39 33 13 16 68 17
68 2z m-2876 -50 c-3 -5 -10 -7 -15 -3 -5 3 -7 10 -3 15 3 5 10 7 15 3 5 -3 7
-10 3 -15z m3306 -21 c0 -4 -4 -8 -10 -8 -5 0 -10 5 -10 10 0 6 -9 10 -20 10
-25 0 -27 17 -2 23 16 3 42 -18 42 -35z m34 27 c3 -9 0 -15 -9 -15 -16 0 -27
14 -18 24 10 10 21 7 27 -9z m-3264 -4 c0 -5 -7 -12 -16 -15 -22 -9 -24 -8
-24 9 0 8 9 15 20 15 11 0 20 -4 20 -9z m3020 -9 c0 -4 -13 -21 -28 -38 -27
-30 -31 -31 -142 -37 -63 -3 -118 -4 -122 -1 -24 15 14 23 115 23 112 0 112 1
137 30 25 29 40 38 40 23z m-2687 -52 c101 0 117 -2 117 -16 0 -13 -8 -15 -47
-10 -27 3 -82 8 -123 12 -55 5 -81 12 -97 27 -12 11 -20 25 -16 30 4 6 15 -1
27 -16 21 -26 24 -27 139 -27z m-283 -17 c22 -20 40 -41 40 -47 0 -5 -17 7
-39 28 -28 27 -50 39 -80 43 -27 4 -41 2 -41 -6 0 -6 -4 -11 -10 -11 -5 0 -10
7 -10 15 0 11 12 15 50 15 45 0 56 -5 90 -37z m3155 27 c3 -6 -5 -10 -19 -10
-14 0 -41 -14 -61 -31 -42 -37 -45 -34 -7 8 36 40 74 54 87 33z m57 -12 c-9
-9 -15 -9 -24 0 -9 9 -7 12 12 12 19 0 21 -3 12 -12z m-2817 -58 c0 -10 -12
-16 -37 -18 -33 -3 -38 0 -38 18 0 18 5 21 38 18 25 -2 37 -8 37 -18z m2354 7
c15 -19 4 -27 -36 -27 -31 0 -44 16 -26 33 11 12 50 8 62 -6z m281 -42 l0 -25
-138 0 c-83 0 -142 -4 -149 -11 -14 -14 -63 0 -63 18 0 12 26 14 162 12 141
-1 164 0 173 15 13 21 15 20 15 -9z m-2786 -4 c129 3 151 2 151 -11 0 -17 -46
-26 -73 -15 -10 4 -72 6 -138 5 -115 -1 -122 0 -127 19 -4 18 -3 19 16 10 13
-8 73 -10 171 -8z m2973 -8 c-4 -6 -20 -8 -37 -5 -16 2 -37 -1 -45 -8 -10 -8
-15 -9 -15 -1 0 6 12 13 28 16 15 4 34 10 42 15 17 9 35 -3 27 -17z m-3242 -5
c6 -6 -12 -7 -50 -5 -32 3 -61 9 -63 15 -4 12 99 3 113 -10z m210 -39 c191 2
215 1 215 -14 0 -23 -28 -30 -66 -16 -21 8 -97 12 -213 12 -143 0 -180 2 -184
13 -8 20 4 28 20 14 9 -7 80 -10 228 -9z m-290 1 c-3 -5 -13 -10 -21 -10 -8 0
-14 5 -14 10 0 6 9 10 21 10 11 0 17 -4 14 -10z m3245 -5 c0 -13 -28 -15 -188
-15 -121 0 -192 -4 -199 -11 -17 -17 -67 -7 -71 14 -4 18 7 18 212 14 124 -3
218 -1 222 4 8 14 24 10 24 -6z m70 0 c0 -8 -4 -15 -10 -15 -5 0 -10 7 -10 15
0 8 5 15 10 15 6 0 10 -7 10 -15z m-3265 -56 c9 -13 355 -10 372 3 6 5 27 8
45 6 25 -2 33 -8 33 -23 0 -25 -38 -32 -72 -14 -20 11 -28 11 -46 0 -15 -10
-22 -10 -25 -2 -2 6 -21 11 -42 11 -33 0 -39 -3 -37 -20 2 -26 31 -34 99 -26
107 13 122 12 126 -6 4 -23 -33 -32 -70 -17 -22 9 -76 10 -209 6 -113 -4 -179
-3 -179 3 0 6 38 10 88 10 110 0 131 6 125 31 -5 17 -15 19 -97 19 -96 0 -136
6 -136 21 0 12 17 11 25 -2z m2813 -11 c3 -15 -4 -18 -37 -18 -35 0 -41 3 -41
21 0 17 5 20 37 17 27 -2 39 -8 41 -20z m392 12 c0 -19 -50 -30 -134 -30 -59
0 -87 -4 -95 -14 -17 -20 6 -26 110 -26 87 0 100 -5 78 -27 -9 -9 -17 -8 -34
3 -18 12 -58 14 -209 11 -173 -2 -186 -1 -186 15 0 14 8 18 33 18 18 0 38 -5
44 -11 11 -11 143 -4 143 7 0 3 -5 14 -10 25 -10 18 -6 19 109 19 69 0 122 4
126 10 8 13 25 13 25 0z m-307 -10 c6 0 1 -7 -12 -16 -15 -11 -26 -13 -33 -6
-14 14 0 35 19 28 8 -3 20 -6 26 -6z m-2445 -120 c2 -14 -28 -16 -248 -16
-152 0 -249 3 -247 9 1 5 85 9 202 8 123 -1 206 3 215 9 22 15 74 8 78 -10z
m2357 9 c5 -6 75 -9 203 -8 109 1 198 -3 199 -7 2 -5 -93 -10 -210 -12 -116
-1 -223 -3 -237 -5 -19 -1 -26 3 -28 21 -3 19 1 22 32 22 19 0 38 -5 41 -11z
m-2357 -66 c-3 -17 -23 -18 -246 -18 -154 0 -242 4 -242 10 0 6 73 9 205 7
141 -2 205 0 205 7 0 6 18 11 41 11 33 0 40 -3 37 -17z m2359 6 c7 -7 76 -9
207 -7 126 2 196 -1 196 -7 0 -6 -87 -10 -240 -10 -223 0 -240 1 -240 17 0 14
8 18 33 18 18 0 38 -5 44 -11z m-2547 -54 c0 -13 9 -15 53 -9 100 11 132 10
132 -6 0 -13 -17 -14 -105 -11 -58 2 -107 5 -109 7 -2 2 -1 10 2 19 8 20 27
20 27 0z m-22 -42 c18 -20 31 -37 29 -39 -1 -2 -23 13 -47 32 l-45 36 -112 -7
c-101 -7 -127 -3 -109 16 2 2 60 3 127 1 l124 -3 33 -36z m2702 34 c0 -12 -17
-15 -117 -22 -87 -5 -93 -5 -93 14 0 18 7 19 105 17 58 0 105 -5 105 -9z m158
-7 c-111 -5 -117 -6 -137 -32 -18 -23 -31 -27 -89 -32 -37 -3 -83 -6 -102 -8
-30 -3 -35 0 -38 20 -3 19 1 22 27 22 16 0 33 -4 36 -10 3 -5 33 -10 65 -10
48 0 63 4 80 22 11 12 20 25 20 30 0 9 181 15 225 8 17 -3 -22 -7 -87 -10z
m112 -36 c0 -15 -10 -16 -78 -10 l-77 6 -49 -40 c-46 -38 -51 -40 -120 -40
-39 0 -87 -4 -105 -10 -38 -11 -64 1 -54 26 5 14 64 20 76 7 4 -3 39 -5 79 -4
67 2 76 5 115 37 41 34 45 35 118 33 41 -1 78 1 82 5 10 10 13 7 13 -10z
m-3025 -31 l40 -36 113 7 c109 6 112 5 112 -15 0 -19 -4 -20 -97 -14 -129 8
-137 10 -178 47 -35 30 -38 31 -130 30 -55 -1 -95 3 -95 8 0 6 42 10 98 10
l97 0 40 -37z m249 31 c9 -3 16 -12 16 -19 0 -20 -36 -28 -73 -16 -17 5 -43
12 -57 14 -18 3 -15 5 12 6 20 0 40 6 43 11 7 11 35 13 59 4z m-360 -60 c15
-14 25 -28 22 -31 -8 -8 -58 28 -64 45 -6 19 11 13 42 -14z m3061 16 c3 -5
-12 -18 -35 -30 -47 -24 -51 -19 -12 15 30 27 38 30 47 15z m-3105 -40 c0 -42
32 -47 230 -39 102 4 187 6 189 4 2 -2 1 -12 -3 -21 -5 -14 -15 -16 -59 -10
-28 3 -116 6 -194 6 -142 0 -142 0 -168 27 -28 31 -32 53 -10 53 8 0 15 -9 15
-20z m3140 3 c0 -5 -10 -20 -23 -35 l-22 -26 -197 -4 c-186 -4 -198 -3 -198
14 0 14 8 18 33 18 18 0 37 -3 42 -8 6 -4 81 -6 167 -4 158 3 158 3 164 28 5
21 34 35 34 17z m-2720 -113 c0 -13 -9 -22 -25 -26 -34 -8 -55 1 -55 26 0 17
6 20 40 20 33 0 40 -3 40 -20z m2355 10 c11 -18 -15 -40 -46 -40 -24 0 -29 4
-29 25 0 22 4 25 34 25 19 0 38 -5 41 -10z m-2358 -66 c8 -22 -16 -36 -51 -29
-38 7 -42 11 -26 30 17 20 69 20 77 -1z m2518 -1 c158 -3 171 -5 188 -24 21
-26 22 -49 1 -49 -9 0 -14 6 -11 13 13 34 -7 38 -174 37 -90 0 -181 -3 -201
-7 -33 -4 -38 -3 -38 15 0 24 17 33 45 24 11 -3 97 -7 190 -9z m-2615 -13 c0
-7 -48 -11 -137 -10 -76 1 -146 1 -156 0 -9 0 -23 -11 -29 -25 -6 -14 -15 -25
-20 -25 -15 0 -8 23 14 47 21 22 27 23 175 23 100 0 153 -4 153 -10z m-215
-41 c-4 -5 -13 -9 -22 -9 -13 0 -13 3 -3 15 13 15 35 11 25 -6z m312 -5 c8
-22 -16 -36 -52 -29 -16 3 -61 6 -99 8 -65 2 -70 0 -103 -30 -33 -32 -38 -33
-116 -33 -45 0 -93 -3 -106 -7 -17 -4 -22 -2 -19 7 3 9 29 12 100 11 l95 -2
34 35 c32 35 36 36 104 36 38 0 77 5 85 10 24 15 70 12 77 -6z m2434 -3 c66
-6 79 -11 109 -40 34 -32 35 -32 127 -30 51 2 93 -1 93 -6 0 -5 -46 -8 -103
-6 -99 2 -103 3 -134 33 l-32 31 -101 -6 c-85 -4 -102 -3 -107 10 -8 20 17 35
47 27 14 -3 59 -9 101 -13z m217 -1 c17 -11 32 -24 32 -30 0 -16 -13 -11 -50
20 -39 34 -30 39 18 10z m-3042 -38 c-14 -14 -16 -14 -16 -1 0 20 23 44 29 28
2 -6 -4 -18 -13 -27z m392 -25 c3 -17 -3 -18 -92 -11 -98 7 -126 0 -126 -32 0
-17 120 -20 137 -3 16 16 78 7 78 -11 0 -13 -33 -15 -243 -13 -133 1 -243 5
-245 8 -1 4 53 8 121 11 122 4 123 4 148 33 22 27 32 31 92 34 110 6 126 4
130 -16z m2408 13 c53 1 104 -27 104 -57 0 -13 18 -14 123 -12 67 2 122 -1
122 -6 0 -5 -56 -8 -125 -8 -149 1 -142 1 -136 11 3 5 -4 19 -16 31 -17 20
-28 22 -72 18 -28 -3 -65 -8 -82 -12 -34 -7 -50 5 -40 32 5 11 14 14 39 9 17
-3 55 -6 83 -6z m16 -60 c25 0 49 -4 53 -10 4 -6 -16 -10 -59 -10 -36 0 -67
-4 -70 -8 -3 -5 -19 -7 -36 -4 -22 3 -30 10 -30 24 0 19 4 20 48 13 26 -4 68
-6 94 -5z m-2424 -70 c-3 -13 -33 -14 -213 -11 -116 2 -225 3 -242 3 -19 -1
-33 4 -33 11 0 9 62 12 245 12 213 0 245 -2 243 -15z m2759 5 c-3 -9 -462 -26
-479 -18 -4 2 -5 9 -2 16 6 15 486 18 481 2z m-12 -55 c-5 -8 -11 -8 -17 -2
-6 6 -7 16 -3 22 5 8 11 8 17 2 6 -6 7 -16 3 -22z m-3200 9 c10 -15 -1 -23
-20 -15 -9 3 -13 10 -10 16 8 13 22 13 30 -1z m3148 4 c22 -21 -21 -28 -172
-27 -89 1 -164 -2 -167 -7 -6 -10 -67 -12 -77 -3 -3 3 -3 11 -1 18 4 10 49 11
190 8 131 -3 189 -1 197 7 13 13 21 14 30 4z m-2801 -19 c9 -2 19 0 23 6 3 5
24 10 46 10 33 0 39 -3 39 -21 0 -20 -3 -20 -97 -12 -54 4 -151 8 -216 8 -87
0 -117 3 -117 13 0 9 34 11 153 7 83 -3 159 -8 169 -11z m2633 -49 c172 0 180
-1 183 -20 3 -16 1 -18 -9 -7 -9 8 -53 12 -146 12 -109 0 -133 -3 -133 -14 0
-25 -21 -29 -27 -6 -4 17 -10 20 -27 15 -11 -4 -36 -9 -53 -12 -28 -4 -33 -2
-33 14 0 28 11 35 40 26 14 -4 106 -8 205 -8z m-2527 -12 c-4 -21 -64 -31 -81
-14 -15 15 -23 14 -42 -6 -16 -16 -18 -16 -27 0 -10 19 -53 23 -64 6 -3 -6
-16 -8 -28 -4 -11 3 -58 6 -103 5 -51 -1 -83 3 -83 9 0 7 65 12 178 14 97 1
194 4 215 5 32 2 38 -1 35 -15z m-440 -12 c3 -8 -1 -12 -9 -9 -7 2 -15 10 -17
17 -3 8 1 12 9 9 7 -2 15 -10 17 -17z m-66 -37 c5 -4 242 -5 458 0 34 1 45 -3
45 -14 0 -18 -62 -27 -78 -11 -6 6 -86 8 -228 4 -199 -5 -219 -4 -219 11 0 16
11 21 22 10z m3308 -10 c0 -8 -67 -11 -222 -12 -123 0 -239 -2 -258 -4 -25 -2
-35 1 -38 12 -2 13 32 15 258 15 183 0 260 -3 260 -11z m-3304 -44 c11 -11
392 -9 451 3 33 7 61 -12 48 -33 -7 -11 -68 -14 -79 -3 -3 4 -48 7 -99 8 -315
3 -347 5 -347 20 0 17 12 19 26 5z m2887 -8 c20 -6 65 -8 100 -6 205 13 317
15 317 4 0 -6 -12 -10 -27 -9 -16 1 -36 1 -47 1 -16 -2 -15 -5 8 -23 16 -13
33 -18 46 -14 14 5 20 2 20 -9 0 -9 -4 -16 -9 -16 -21 0 -65 22 -81 40 -14 16
-31 20 -83 21 -36 1 -71 -2 -78 -7 -7 -4 -70 -8 -141 -8 -111 -1 -128 1 -128
15 0 33 13 34 103 11z m-2793 -27 c0 -8 -54 -32 -87 -40 -21 -4 -33 -3 -33 4
0 6 13 11 29 11 16 0 34 7 41 15 11 14 50 22 50 10z m45 -25 c20 -19 28 -19
189 -9 93 5 171 7 174 5 2 -3 2 -13 -2 -22 -5 -13 -14 -15 -49 -10 -23 3 -101
6 -172 6 -127 -1 -131 0 -155 25 -28 29 -16 34 15 5z m3025 -3 c-32 -20 -48
-22 -170 -23 -74 0 -150 -4 -167 -8 -26 -7 -34 -5 -39 8 -12 30 -15 30 198 23
106 -4 141 -2 155 9 10 7 27 13 38 14 15 0 12 -5 -15 -23z m-2663 -62 c3 -9 4
-18 2 -20 -2 -2 -87 0 -189 4 -171 7 -187 6 -206 -11 -11 -10 -26 -18 -32 -18
-22 0 -12 15 23 34 30 17 51 18 174 14 77 -3 145 -1 153 3 22 14 68 10 75 -6z
m2699 -31 c29 -32 74 -47 74 -24 0 6 7 10 16 10 9 0 14 -6 12 -12 -6 -16 -509
-29 -520 -14 -18 26 -1 26 340 12 83 -4 83 -3 69 18 -14 20 -22 21 -178 21
-90 0 -177 -2 -194 -5 -25 -4 -31 -1 -33 16 -3 20 -1 20 190 17 l193 -4 31
-35z m-3148 24 c-5 -15 -68 -30 -68 -16 0 9 36 26 58 27 8 1 12 -5 10 -11z
m3241 -4 c2 -2 2 -6 -1 -9 -8 -8 -68 7 -68 17 0 9 58 2 69 -8z m-3091 -53
c117 0 212 5 219 11 17 14 78 6 78 -11 0 -12 -42 -14 -258 -14 -142 1 -261 3
-264 6 -3 3 -1 11 3 18 6 10 9 10 12 1 3 -10 54 -12 210 -11z m-208 -42 c0 -9
337 -7 465 3 30 2 40 -1 43 -13 4 -19 -31 -29 -68 -18 -14 4 -123 7 -242 8
-187 1 -218 3 -218 16 0 8 5 15 10 15 6 0 10 -5 10 -11z m3069 -6 c165 -3 216
-1 222 9 11 17 23 3 15 -17 -5 -14 -29 -15 -211 -10 -144 4 -218 2 -245 -6
-31 -10 -43 -9 -55 1 -23 20 1 44 34 34 14 -4 122 -9 240 -11z m-2564 -63 c0
-13 -29 -15 -217 -11 -156 2 -218 0 -218 -8 0 -6 -7 -11 -16 -11 -9 0 -14 7
-12 18 3 15 23 18 198 23 262 7 265 7 265 -11z m2739 -2 c14 -7 15 -13 7 -21
-9 -9 -14 -8 -20 2 -7 11 -50 13 -222 10 -118 -2 -215 -1 -216 4 -2 4 -3 11
-3 15 0 11 431 2 454 -10z m-2739 -58 c0 -18 -62 -27 -78 -11 -7 7 -61 11
-137 11 -122 0 -127 -1 -150 -25 -13 -14 -29 -25 -36 -25 -7 0 -14 -6 -17 -12
-4 -10 -7 -10 -17 -1 -11 10 -8 14 16 23 16 6 38 20 49 30 25 23 44 25 225 25
122 0 145 -2 145 -15z m2656 -16 c14 -13 35 -24 47 -24 23 0 30 -14 12 -25 -5
-3 -31 10 -57 30 l-47 36 -126 -5 c-69 -2 -141 -6 -160 -8 -25 -2 -35 1 -38
13 -3 14 15 16 170 11 165 -4 174 -5 199 -28z m-2656 -24 c4 -6 1 -17 -5 -25
-14 -17 -56 -20 -65 -5 -3 5 -29 13 -58 17 l-52 8 55 6 c92 10 119 9 125 -1z
m2360 0 c11 -18 -17 -41 -44 -38 -18 2 -27 10 -29 26 -3 19 1 22 32 22 19 0
38 -5 41 -10z m-2715 -40 c-12 -16 -26 -27 -32 -24 -5 4 2 18 18 35 35 36 43
30 14 -11z m3009 14 c18 -18 21 -28 13 -36 -8 -8 -13 -6 -18 8 -4 10 -14 27
-22 37 -24 27 0 20 27 -9z m-2654 -44 c0 -18 -62 -27 -78 -11 -14 14 -70 14
-101 0 -14 -7 -30 -26 -37 -43 -9 -25 -13 -27 -16 -13 -3 12 6 30 23 48 22 23
37 29 83 32 97 6 126 3 126 -13z m2498 -23 c28 -32 34 -47 17 -47 -5 0 -10 4
-10 9 0 4 -12 20 -26 35 -21 20 -37 26 -70 26 -23 0 -46 -4 -49 -10 -3 -5 -22
-10 -41 -10 -28 0 -34 4 -34 20 0 20 4 20 93 14 86 -6 94 -9 120 -37z m-2498
-37 c0 -18 -62 -27 -77 -12 -18 18 3 33 40 30 25 -2 37 -8 37 -18z m2364 13
l23 -6 -23 -13 c-13 -7 -34 -13 -45 -14 -23 0 -48 22 -37 33 8 9 51 9 82 0z
m86 -30 c14 -15 25 -31 25 -35 0 -5 9 -17 20 -28 13 -13 15 -20 7 -20 -7 0
-27 20 -45 45 -17 25 -36 45 -42 45 -5 0 -10 5 -10 10 0 18 19 11 45 -17z
m-2582 7 c-22 -9 -41 -35 -58 -82 -8 -21 -13 -25 -25 -18 -10 6 -11 10 -2 10
6 0 12 5 12 12 0 25 53 88 74 87 21 0 21 0 -1 -9z m132 -45 c0 -16 -8 -21 -42
-23 -33 -2 -47 -10 -68 -35 -14 -18 -30 -38 -36 -44 -12 -15 -39 -17 -39 -3 0
6 6 10 14 10 8 0 22 10 30 22 50 71 81 98 111 96 22 -2 30 -8 30 -23z m2372
-7 c47 -51 84 -104 76 -111 -12 -12 -23 -7 -23 11 0 9 -15 34 -33 55 -27 30
-41 37 -70 37 -30 0 -37 4 -37 20 0 33 50 26 87 -12z m-2607 -36 c0 -13 -12
-22 -22 -16 -10 6 -1 24 13 24 5 0 9 -4 9 -8z m320 -14 c0 -13 -15 -37 -33
-54 -39 -37 -128 -97 -134 -90 -2 2 23 23 56 45 57 39 61 44 61 81 0 36 3 40
25 40 19 0 25 -5 25 -22z m50 -12 c0 -19 -4 -38 -10 -41 -5 -3 -10 -19 -10
-34 0 -32 -35 -69 -76 -80 -22 -6 -28 -13 -26 -29 2 -12 -2 -22 -7 -22 -6 0
-11 11 -11 23 0 18 10 28 41 42 50 23 59 39 59 108 0 56 4 67 27 67 8 0 13
-12 13 -34z m46 -27 c-3 -34 -6 -79 -6 -100 0 -26 -7 -45 -22 -59 -24 -22 -48
-27 -48 -9 0 6 6 9 14 6 36 -14 60 86 36 148 -13 33 -3 75 18 75 12 0 14 -10
8 -61z m57 26 c-1 -17 -5 -48 -10 -70 l-9 -40 -7 49 c-11 80 -9 98 11 94 12
-3 16 -12 15 -33z m52 -47 c-5 -52 -12 -87 -21 -94 -9 -7 -14 -32 -14 -70 0
-52 -3 -62 -32 -91 -18 -18 -40 -33 -50 -33 -13 0 -18 -8 -18 -25 0 -14 -4
-25 -9 -25 -5 0 -9 13 -9 30 1 24 6 30 29 35 16 4 40 20 54 37 20 24 25 40 25
88 0 33 5 62 11 66 8 4 9 31 4 85 -6 76 -6 79 15 79 21 0 21 -3 15 -82z m51
35 c-4 -27 -10 -82 -15 -123 -8 -74 -8 -73 -9 48 -2 106 0 122 14 122 13 0 15
-8 10 -47z m58 9 c0 -17 -1 -86 -2 -152 l-2 -119 -52 -34 c-29 -19 -62 -44
-72 -56 -11 -11 -24 -21 -29 -21 -17 0 32 47 91 87 l54 38 -6 100 c-3 55 -9
122 -12 148 -6 44 -4 49 12 45 14 -2 19 -12 18 -36z m54 4 c2 -16 -1 -33 -7
-39 -7 -7 -11 -57 -12 -121 -1 -147 -6 -125 -12 52 -5 129 -4 143 11 140 10
-2 18 -15 20 -32z m49 -23 c-4 -32 -9 -109 -13 -171 -4 -62 -9 -110 -13 -107
-3 4 -6 81 -6 171 0 154 1 164 19 164 17 0 18 -6 13 -57z m53 23 c0 -19 -4
-38 -10 -41 -6 -4 -10 -82 -10 -201 0 -110 -4 -193 -9 -190 -5 3 -6 27 -3 52
4 38 1 50 -13 61 -18 13 -18 13 -1 13 18 0 18 10 14 170 -5 161 -4 170 13 170
15 0 19 -8 19 -34z m46 -18 c-3 -29 -9 -144 -13 -255 -3 -112 -9 -203 -12
-203 -4 0 -6 397 -2 498 1 6 8 12 17 12 14 0 16 -8 10 -52z m56 27 c-11 -85
-13 -153 -6 -158 15 -9 4 -97 -12 -97 -16 0 -18 12 -5 25 6 6 6 48 1 110 -13
143 -13 147 8 143 10 -2 16 -11 14 -23z m58 18 c0 -5 -5 -84 -10 -177 l-10
-168 -35 -39 c-36 -40 -44 -76 -23 -97 15 -15 6 -24 -15 -17 -28 11 -11 85 30
122 l35 31 -4 81 c-2 45 1 81 5 81 9 0 5 59 -9 148 -6 38 -4 42 15 42 12 0 21
-3 21 -7z m55 -30 c-4 -21 -10 -108 -14 -193 -4 -85 -8 -150 -10 -145 -2 6 -4
92 -5 192 -1 172 0 183 18 183 16 0 17 -5 11 -37z m51 -15 c-3 -29 -6 -129 -7
-223 -1 -93 -4 -160 -6 -148 -4 22 -33 41 -33 21 0 -6 -3 -8 -7 -5 -3 4 2 16
12 26 15 17 17 38 16 143 -1 68 -4 149 -7 181 -6 54 -6 57 16 57 22 0 22 -3
16 -52z m60 26 c4 -14 2 -30 -5 -37 -6 -6 -11 -43 -11 -84 0 -71 0 -72 23 -64
20 8 22 14 19 67 -1 33 -5 78 -8 102 -6 39 -4 42 16 42 22 0 22 -3 16 -52 -3
-29 -6 -77 -6 -106 0 -48 -3 -54 -30 -70 l-30 -17 0 -107 c0 -103 -7 -127 -32
-112 -8 5 -7 10 5 18 13 10 15 38 12 191 -2 99 -6 190 -10 202 -4 13 -5 30 -1
38 9 24 35 17 42 -11z m99 -71 c-8 -112 -15 -135 -15 -45 0 33 -4 64 -10 67
-11 7 -14 58 -3 68 3 4 13 7 20 7 12 0 13 -18 8 -97z m58 57 c-7 -130 -23
-215 -23 -123 0 22 -3 68 -7 103 -6 57 -5 62 13 58 15 -3 19 -11 17 -38z m57
6 c0 -19 -4 -38 -10 -41 -6 -4 -10 -68 -10 -160 l0 -154 -30 -32 c-22 -24 -33
-30 -41 -22 -8 8 -2 16 20 29 l31 18 0 198 c0 191 1 198 20 198 16 0 20 -7 20
-34z m53 -78 c-3 -62 -7 -115 -9 -117 -2 -2 -4 30 -4 72 0 42 -4 79 -10 82 -5
3 -10 22 -10 41 0 27 4 34 20 34 19 0 19 -5 13 -112z m75 -90 l2 -198 31 -15
c16 -9 27 -20 24 -25 -3 -6 -19 0 -36 12 l-29 22 -1 135 c-2 164 -3 179 -18
194 -6 6 -11 26 -11 45 0 26 4 33 18 30 15 -3 17 -22 20 -200z m45 83 c-5
-102 -3 -124 11 -145 9 -14 16 -38 16 -54 0 -15 6 -34 13 -41 10 -10 8 -12 -8
-9 -16 2 -21 12 -23 48 -2 24 -8 51 -15 58 -7 8 -10 46 -8 97 1 51 -2 86 -8
90 -12 7 -15 58 -4 68 3 4 12 7 19 7 10 0 12 -26 7 -119z m53 67 c-3 -29 -6
-71 -6 -92 0 -59 -8 -39 -20 47 -12 81 -9 97 17 97 13 0 15 -9 9 -52z m56 17
c-1 -17 -5 -58 -8 -93 l-6 -63 31 -12 31 -11 -2 -111 -2 -110 -5 98 c-6 98
-13 115 -52 129 -4 2 -11 50 -14 106 -7 98 -6 104 11 100 14 -3 18 -11 16 -33z
m57 3 c0 -18 -4 -55 -9 -83 l-7 -50 -2 42 c0 23 -5 45 -11 48 -5 3 -10 22 -10
41 0 27 4 34 20 34 16 0 20 -6 19 -32z m54 17 c4 -8 3 -24 0 -37 -4 -13 -9
-92 -10 -176 l-4 -152 23 4 c23 3 23 5 20 122 -1 65 -5 150 -8 187 -6 64 -5
69 12 65 15 -3 18 -11 17 -38 -1 -19 -2 -100 -2 -180 0 -80 -3 -153 -6 -163
-4 -9 -18 -17 -31 -17 -20 0 -24 -5 -24 -32 0 -17 -3 -29 -6 -26 -3 4 -8 108
-11 232 -4 197 -3 226 10 226 8 0 17 -7 20 -15z m107 -19 c0 -19 -4 -38 -10
-41 -6 -4 -10 -69 -11 -158 -2 -195 -7 -171 -12 56 -4 167 -3 177 15 177 14 0
18 -8 18 -34z m46 -33 c-3 -38 -8 -115 -12 -173 -3 -58 -8 -108 -10 -111 -2
-4 8 -19 21 -35 18 -21 25 -41 25 -71 0 -23 -4 -45 -10 -48 -6 -4 -10 13 -10
43 0 37 -5 54 -21 68 -19 17 -20 26 -14 90 4 48 3 74 -4 79 -17 10 -13 35 5
35 14 0 16 9 10 58 -3 31 -8 67 -12 79 -8 30 1 53 22 53 14 0 16 -9 10 -67z
m54 55 c-3 -144 9 -441 18 -447 12 -7 5 -51 -8 -51 -8 0 -20 184 -21 333 -1
48 -5 90 -10 93 -5 3 -9 23 -9 45 0 28 4 39 15 39 8 0 15 -6 15 -12z m51 -145
c0 -87 4 -189 8 -228 5 -38 5 -74 0 -79 -13 -15 -18 30 -23 204 -3 91 -8 186
-12 213 -5 39 -3 47 10 47 14 0 16 -20 17 -157z m50 140 c1 -10 0 -22 -1 -28
-1 -5 -2 -78 -1 -162 1 -83 -2 -154 -7 -157 -5 -3 -9 50 -10 117 -1 67 -5 150
-8 185 -5 53 -4 62 10 62 9 0 17 -8 17 -17z m45 -44 c-3 -34 -6 -109 -6 -165
0 -57 -3 -104 -7 -104 -5 0 -8 74 -9 165 0 139 2 165 14 165 12 0 14 -11 8
-61z m56 21 c-11 -122 -12 -231 -2 -249 26 -49 32 -20 28 131 -3 143 -2 153
16 156 17 4 18 0 12 -44 -15 -113 -18 -222 -7 -255 7 -20 28 -46 52 -64 42
-31 68 -65 49 -65 -5 0 -10 4 -10 8 0 5 -29 30 -64 56 -96 71 -93 62 -99 224
-5 131 -5 143 11 140 13 -3 16 -12 14 -38z m111 27 c3 -7 1 -40 -3 -72 -4 -33
-8 -47 -9 -32 0 16 -8 35 -16 43 -15 16 -20 55 -8 67 11 11 31 8 36 -6z m55
-21 c2 -16 -1 -33 -7 -39 -7 -7 -11 -55 -11 -120 0 -108 0 -109 30 -139 39
-39 35 -45 -7 -10 l-31 27 -5 158 c-5 144 -4 158 11 155 10 -2 18 -15 20 -32z
m49 -48 c-2 -67 2 -88 17 -110 10 -16 25 -28 32 -28 8 0 14 -4 14 -10 0 -17
-13 -11 -47 22 -28 27 -33 39 -33 79 0 26 -4 51 -10 54 -11 7 -14 58 -3 68 3
4 12 7 19 7 10 0 13 -21 11 -82z m60 67 c3 -9 -1 -37 -8 -63 -12 -43 -14 -45
-20 -22 -13 48 -10 100 6 100 9 0 18 -7 22 -15z m93 -25 c0 -35 6 -46 48 -85
26 -25 42 -45 35 -45 -7 0 -16 6 -20 13 -4 7 -25 26 -45 41 -31 23 -38 35 -39
65 l-1 36 -11 -28 c-12 -31 -40 -33 -45 -4 -7 33 6 47 43 47 34 0 35 -1 35
-40z m280 19 c0 -5 -4 -9 -10 -9 -5 0 -10 7 -10 16 0 8 5 12 10 9 6 -3 10 -10
10 -16z m-59 -62 c-8 -8 -11 -5 -11 9 0 27 14 41 18 19 2 -9 -1 -22 -7 -28z
m-2731 11 c0 -16 -3 -19 -11 -11 -6 6 -8 16 -5 22 11 17 16 13 16 -11z m40 6
c0 -8 -5 -12 -10 -9 -6 4 -8 11 -5 16 9 14 15 11 15 -7z m2750 -2 c0 -13 -12
-22 -22 -16 -10 6 -1 24 13 24 5 0 9 -4 9 -8z m-350 -57 c0 -18 48 -55 71 -55
14 0 19 -7 19 -30 0 -16 -5 -30 -11 -30 -6 0 -9 9 -6 19 4 15 -4 24 -29 36
-18 8 -40 22 -49 31 -16 17 -21 59 -5 49 6 -3 10 -12 10 -20z m-223 -92 c-2
-21 -4 -6 -4 32 0 39 2 55 4 38 2 -18 2 -50 0 -70z m-2037 22 c0 -8 -4 -15
-10 -15 -5 0 -10 7 -10 15 0 8 5 15 10 15 6 0 10 -7 10 -15z m1064 0 c3 -9 -8
-30 -26 -51 -30 -34 -31 -39 -30 -120 1 -52 -2 -84 -8 -84 -7 0 -10 33 -9 89
1 85 3 91 30 117 16 15 29 36 29 46 0 22 6 23 14 3z m340 -43 c36 -44 36 -45
36 -138 0 -52 -4 -94 -9 -94 -15 0 -23 18 -11 25 5 3 10 40 10 81 0 71 -1 76
-35 111 -19 20 -35 44 -35 52 0 8 2 12 4 10 2 -2 20 -24 40 -47z m1026 38 c0
-5 -4 -10 -10 -10 -5 0 -10 5 -10 10 0 6 5 10 10 10 6 0 10 -4 10 -10z m-1450
-65 c-8 -10 -11 -45 -8 -110 2 -73 0 -95 -10 -95 -10 0 -12 23 -8 100 5 102 9
120 28 120 7 0 6 -5 -2 -15z m102 -7 c-7 -7 -12 -28 -12 -47 -1 -38 -19 -71
-40 -71 -9 0 -8 5 3 18 10 10 17 32 17 48 0 30 27 80 38 69 3 -3 0 -11 -6 -17z
m-542 -94 c0 -8 -7 -14 -15 -14 -8 0 -15 9 -15 20 0 13 5 18 15 14 8 -4 15
-12 15 -20z m1353 -7 c-3 -5 -10 -4 -15 1 -6 6 -7 16 -3 22 6 9 9 9 16 -1 4
-7 5 -17 2 -22z m307 3 c0 -5 -4 -10 -10 -10 -5 0 -10 5 -10 10 0 6 5 10 10
10 6 0 10 -4 10 -10z m-1439 -73 c-26 -40 -28 -13 -3 39 15 32 17 34 20 15 2
-12 -6 -36 -17 -54z m649 57 c0 -8 -4 -12 -10 -9 -5 3 -10 10 -10 16 0 5 5 9
10 9 6 0 10 -7 10 -16z m-1144 -41 c-11 -11 -17 4 -9 23 7 18 8 18 11 1 2 -10
1 -21 -2 -24z m1383 11 c12 -26 8 -44 -10 -44 -6 0 -7 9 -4 20 4 11 2 20 -4
20 -6 0 -11 7 -11 15 0 23 16 18 29 -11z m511 4 c0 -19 -2 -20 -10 -8 -13 19
-13 30 0 30 6 0 10 -10 10 -22z m50 7 c0 -8 -4 -15 -10 -15 -5 0 -10 7 -10 15
0 8 5 15 10 15 6 0 10 -7 10 -15z m-1870 -35 c0 -5 -4 -10 -9 -10 -6 0 -13 5
-16 10 -3 6 1 10 9 10 9 0 16 -4 16 -10z m1754 -11 c-3 -5 -10 -7 -15 -3 -5 3
-7 10 -3 15 3 5 10 7 15 3 5 -3 7 -10 3 -15z m-596 -1 c-6 -18 -28 -21 -28 -4
0 9 7 16 16 16 9 0 14 -5 12 -12z m-640 -19 c-2 -6 -8 -10 -13 -10 -5 0 -11 4
-13 10 -2 6 4 11 13 11 9 0 15 -5 13 -11z m722 2 c0 -12 -20 -25 -27 -18 -7 7
6 27 18 27 5 0 9 -4 9 -9z m-980 -26 c0 -8 -4 -15 -10 -15 -5 0 -10 7 -10 15
0 8 5 15 10 15 6 0 10 -7 10 -15z m150 0 c0 -8 -4 -15 -10 -15 -5 0 -10 7 -10
15 0 8 5 15 10 15 6 0 10 -7 10 -15z m930 0 c0 -8 -4 -15 -10 -15 -5 0 -10 7
-10 15 0 8 5 15 10 15 6 0 10 -7 10 -15z m148 -3 c2 -7 -3 -12 -12 -12 -9 0
-16 7 -16 16 0 17 22 14 28 -4z"/>
<path d="M1682 3212 c-10 -7 -12 -107 -10 -468 l3 -459 850 0 850 0 3 454 c1
322 -1 458 -9 467 -9 11 -159 14 -843 14 -457 -1 -837 -4 -844 -8z"/>
<path d="M3196 2165 c-34 -34 -6 -89 43 -83 31 4 52 49 35 76 -15 23 -58 27
-78 7z"/>
</g>
</svg>
